<?xml version="1.0" encoding="UTF-8" standalone="no"?>
<!DOCTYPE svg PUBLIC "-//W3C//DTD SVG 1.1//EN" "http://www.w3.org/Graphics/SVG/1.1/DTD/svg11.dtd">
<svg width="100%" height="100%" viewBox="0 0 512 512" version="1.1" xmlns="http://www.w3.org/2000/svg" xmlns:xlink="http://www.w3.org/1999/xlink" xml:space="preserve" xmlns:serif="http://www.serif.com/" style="fill-rule:evenodd;clip-rule:evenodd;stroke-linejoin:round;stroke-miterlimit:2;"><path d="M104.677,411.142l-18.253,0c-43.283,0 -78.424,-35.141 -78.424,-78.424l0,-253.958c0,-43.283 35.141,-78.424 78.424,-78.424c0,0 190.269,-0.755 233.586,0c8.852,0.154 20.654,2.258 26.319,3.439c90.04,18.759 157.771,99.73 157.771,195.302l0,14.056c0,97.743 -70.663,186.403 -179.304,198.008c-2.381,0.061 -19.071,0.366 -19.071,0.366l-22.476,0c-4.077,0 -8.125,-0.123 -12.142,-0.366l-43.32,0l-123.111,99.56l0,-99.56Z" style="fill:url(#_Linear1);"/><clipPath id="_clip2"><path d="M104.677,411.142l-18.253,0c-43.283,0 -78.424,-35.141 -78.424,-78.424l0,-253.958c0,-43.283 35.141,-78.424 78.424,-78.424c0,0 190.269,-0.755 233.586,0c8.852,0.154 20.654,2.258 26.319,3.439c90.04,18.759 157.771,99.73 157.771,195.302l0,14.056c0,97.743 -70.663,186.403 -179.304,198.008c-2.381,0.061 -19.071,0.366 -19.071,0.366l-22.476,0c-4.077,0 -8.125,-0.123 -12.142,-0.366l-43.32,0l-123.111,99.56l0,-99.56Z"/></clipPath><g clip-path="url(#_clip2)"><path d="M499.714,157.365c2.874,13.472 4.387,27.429 4.387,41.712l0,14.056c0,21.042 -3.275,41.663 -9.498,61.184c-41.214,17.703 -96.412,39.362 -141.231,49.671c-48.502,11.157 -85.675,0.011 -104.311,-8.137c-0.139,-0.061 -0.277,-0.121 -0.413,-0.182c-8.332,-3.677 -12.834,-6.697 -12.834,-6.697c0,0 -16.827,-8.715 -37.946,-27.588c-4.688,-4.189 -9.587,-8.879 -14.561,-14.085c-0.375,-0.392 -0.75,-0.788 -1.126,-1.186c-10.026,-10.629 -20.312,-23.353 -29.74,-38.299c-3.906,-6.192 -8.241,-14.153 -12.863,-23.421c-26.192,-52.514 -61.617,-146.971 -80.585,-199.119c8.54,-3.193 17.784,-4.939 27.432,-4.939c0,0 190.269,-0.755 233.586,0c8.852,0.154 20.654,2.258 26.319,3.439c44.934,9.361 84.312,34.217 112.489,68.648c19.847,24.252 34.136,53.256 40.896,84.942Z" style="fill:#fff;fill-opacity:0.05;"/></g><clipPath id="_clip3"><path d="M104.677,411.142l-18.253,0c-43.283,0 -78.424,-35.141 -78.424,-78.424l0,-253.958c0,-43.283 35.141,-78.424 78.424,-78.424c0,0 190.269,-0.755 233.586,0c8.852,0.154 20.654,2.258 26.319,3.439c90.04,18.759 157.771,99.73 157.771,195.302l0,14.056c0,97.743 -70.663,186.403 -179.304,198.008c-2.381,0.061 -19.071,0.366 -19.071,0.366l-22.476,0c-4.077,0 -8.125,-0.123 -12.142,-0.366l-43.32,0l-123.111,99.56l0,-99.56Z"/></clipPath><g clip-path="url(#_clip3)"><path d="M8,211.213l0,-132.453c0,-33.635 21.22,-62.353 50.992,-73.485c8.54,-3.193 17.784,-4.939 27.432,-4.939c0,0 190.269,-0.755 233.586,0c8.852,0.154 20.654,2.258 26.319,3.439c44.934,9.361 84.312,34.217 112.489,68.648c19.847,24.252 34.136,53.256 40.896,84.942c-27.817,26.181 -73.545,63.269 -145.915,108.04c-14.948,9.248 -31.033,18.823 -48.332,28.697c-18.711,10.681 -37.259,17.656 -55.493,21.556c-0.305,0.065 -0.609,0.129 -0.914,0.193c-24.167,5.037 -47.776,4.685 -70.47,0.417c-3.395,-0.638 -6.77,-1.365 -10.123,-2.173c-8.239,-1.987 -16.346,-4.474 -24.306,-7.387c-1.586,-0.58 -3.165,-1.177 -4.739,-1.791c-25.674,-10.01 -49.743,-24.368 -71.599,-40.563c-22.509,-16.679 -42.671,-35.308 -59.823,-53.142Z" style="fill:url(#_Radial4);"/></g><clipPath id="_clip5"><path d="M104.677,411.142l-18.253,0c-43.283,0 -78.424,-35.141 -78.424,-78.424l0,-253.958c0,-43.283 35.141,-78.424 78.424,-78.424c0,0 190.269,-0.755 233.586,0c8.852,0.154 20.654,2.258 26.319,3.439c90.04,18.759 157.771,99.73 157.771,195.302l0,14.056c0,97.743 -70.663,186.403 -179.304,198.008c-2.381,0.061 -19.071,0.366 -19.071,0.366l-22.476,0c-4.077,0 -8.125,-0.123 -12.142,-0.366l-43.32,0l-123.111,99.56l0,-99.56Z"/></clipPath><g clip-path="url(#_clip5)"><path d="M8,255.285l0,-176.526c0,-33.635 21.22,-62.353 50.992,-73.485c8.54,-3.193 17.784,-4.939 27.432,-4.939c0,0 190.269,-0.755 233.586,0c8.852,0.154 20.654,2.258 26.319,3.439c44.934,9.361 84.312,34.217 112.489,68.648c-19.439,55.189 -49.742,95.491 -85.84,124.639c-21.487,17.35 -45.027,30.748 -69.55,40.981c-38.529,16.078 -79.487,24.344 -118.726,27.852c-0.841,0.075 -1.682,0.148 -2.522,0.219c-14.554,1.228 -28.859,1.809 -42.701,1.898c-25.984,0.167 -50.339,-1.397 -71.656,-3.657c-24.783,-2.627 -45.461,-6.193 -59.823,-9.069Z" style="fill:#fff;fill-opacity:0.06;"/></g><path d="M139.667,145.584l53.76,0l0,111.525l-54.016,54.38l0.255,-165.905Z" style="fill:#fff;"/><path d="M166.42,316.373l47.987,-53.392l49.803,-0.679c0,0 42.03,-3.661 51.2,-54.227l0.146,-17.779c0,0 -3.857,-60.33 -65.992,-65.044l-110.152,0.109c0,0 -6.342,-48.231 40.367,-53.374l86.689,-0.109c0,0 98.797,7.093 106.51,113.367l0,25.711c0,0 -5.999,94.275 -106.273,104.559l-100.285,0.857Z" style="fill:#fff;"/><defs><linearGradient id="_Linear1" x1="0" y1="0" x2="1" y2="0" gradientUnits="userSpaceOnUse" gradientTransform="matrix(230.033826,-457.762976,471.235685,236.804096,104.279696,502.329132)"><stop offset="0" style="stop-color:#742bee;stop-opacity:1"/><stop offset="0.11" style="stop-color:#692eee;stop-opacity:1"/><stop offset="0.21" style="stop-color:#443aee;stop-opacity:1"/><stop offset="0.48" style="stop-color:#473aed;stop-opacity:1"/><stop offset="1" style="stop-color:#4dc4ee;stop-opacity:1"/></linearGradient><radialGradient id="_Radial4" cx="0" cy="0" r="1" gradientUnits="userSpaceOnUse" gradientTransform="matrix(592.695607,0,0,363.692691,-54.490095,137.702873)"><stop offset="0" style="stop-color:#fff;stop-opacity:0"/><stop offset="0.54" style="stop-color:#fff;stop-opacity:0.04"/><stop offset="1" style="stop-color:#fff;stop-opacity:0"/></radialGradient></defs></svg>